<?xml version="1.0" encoding="UTF-8"?>
<svg id="Layer_1" xmlns="http://www.w3.org/2000/svg" version="1.1" viewBox="0 0 595.96 307.96">
  
  <defs>
    
  </defs>
  <g>
    <path class="st0" d="M235.81,80.96c-5.35,13.73-7.11,33.44,3.03,40.17,4.47,2.96,11.36,4.52,17.06,3.15,38.36-9.24,69.78-34.89,90.7-68.34-11.19,44.43-55.95,75.79-100.86,85.44-1.57.34-2.33,2.14-1.44,3.46,1.2,1.78,2.48,3.49,3.9,5.21,2.76,3.34,7.26,4.76,11.42,3.55,54.79-16,92.4-59.02,94.57-117.41,32.79,27.01,41.18,71.72,22.63,108.08-13.16,25.8-38.15,43.32-64.5,47.42-30.89,4.8-59.53-5.66-79.97-27.68-25.52-27.51-31.03-66.16-14.08-99.31C243.77,14.85,307.69.2,351.99,34.5l-3.1,5.34c-13.05-8-26.47-13.68-42.31-13.73-33.13-.11-60.97,24.88-64.83,57.72-.75,6.41.54,13.3,3.59,18.6,9.26,16.11,54.33-8.8,72.81-22.49-16.71,17.93-63.6,48.52-77.77,28.94-5.88-8.12-4.56-17.86-4.57-27.91ZM285.05,175.65c32.43,10.1,66.9-3.08,83.43-32.9,16.32-29.44,12.37-67.63-10.32-92.71-4.89,49.16-36.11,87.95-80.85,105.13-4.22,1.62-8.87,6.65-5.85,10.92s8.12,6.72,13.59,9.56Z"></path>
    <path class="st0" d="M334.23,58.56c-14.58-10.99-31.48-14.14-49.62-9.22-14.67,3.98-27.96,15.56-36.03,30.91,2.22-18.98,16.08-33.21,33.79-38.6,20.04-6.09,41.48-1.72,57.27,10.89l-5.41,6.03Z"></path>
    <path class="st0" d="M282.75,158.64c19.14-8.1,34.8-18.31,48.47-33.13-8.97,17.34-26.48,25.45-41.64,38.44,21.18,4.69,41.88-5.57,53.7-19.59,13.59-16.13,17.96-37.6,11.36-57.41l4.11-10.34c9.81,21.05,9.12,43.22-2.54,63.69-14.55,25.54-49.46,41.74-74.32,27.76-1.18-.66-3.09-3.41-3.26-4.75s2.42-3.94,4.13-4.67Z"></path>
  </g>
  <g>
    <path class="st0" d="M61.81,236.98v32.85c0,10.14-5.29,15.34-15.69,15.34h-19.5c-10.4,0-15.69-5.2-15.69-15.34v-32.85c0-10.14,5.29-15.34,15.69-15.34h19.5c10.4,0,15.69,5.2,15.69,15.34ZM41.44,234.9h-10.14c-3.55,0-4.77,1.13-4.77,4.6v27.83c0,3.38,1.21,4.59,4.77,4.59h10.14c3.55,0,4.77-1.21,4.77-4.59v-27.83c0-3.47-1.22-4.6-4.77-4.6Z"></path>
    <path class="st0" d="M104.22,285.17h-18.55c-10.4,0-15.69-5.2-15.69-15.34v-47.33h15.6v44.82c0,3.38,1.21,4.59,4.77,4.59h9.19c3.55,0,4.77-1.21,4.77-4.59v-44.82h15.6v47.33c0,10.14-5.29,15.34-15.69,15.34Z"></path>
    <path class="st0" d="M145.67,235.76h-17.6v-13.26h50.8v13.26h-17.6v48.54h-15.6v-48.54Z"></path>
    <path class="st0" d="M202.22,235.76v10.32h24.62v13.26h-24.62v11.7h28.26v13.26h-43.86v-61.81h43.86v13.26h-28.26Z"></path>
    <path class="st0" d="M238.79,222.5h33.55c10.49,0,15.78,5.2,15.78,15.34v9.27c0,7.63-2.95,12.4-8.93,14.3l15.6,22.89h-18.2l-15.08-21.93h-7.11v21.93h-15.6v-61.81ZM267.66,249.11c3.64,0,4.85-1.13,4.85-4.51v-4.25c0-3.47-1.21-4.59-4.85-4.59h-13.26v13.35h13.26Z"></path>
    <path class="st0" d="M374.67,236.98v32.85c0,10.14-5.29,15.34-15.69,15.34h-19.5c-10.4,0-15.69-5.2-15.69-15.34v-32.85c0-10.14,5.29-15.34,15.69-15.34h19.5c10.4,0,15.69,5.2,15.69,15.34ZM354.3,234.9h-10.14c-3.55,0-4.77,1.13-4.77,4.6v27.83c0,3.38,1.21,4.59,4.77,4.59h10.14c3.55,0,4.77-1.21,4.77-4.59v-27.83c0-3.47-1.22-4.6-4.77-4.6Z"></path>
    <path class="st0" d="M383.88,222.5h33.55c10.49,0,15.78,5.2,15.78,15.34v9.27c0,7.63-2.95,12.4-8.93,14.3l15.6,22.89h-18.2l-15.08-21.93h-7.11v21.93h-15.6v-61.81ZM412.74,249.11c3.64,0,4.85-1.13,4.85-4.51v-4.25c0-3.47-1.21-4.59-4.85-4.59h-13.26v13.35h13.26Z"></path>
    <path class="st0" d="M445.81,222.5h32.51c10.4,0,15.78,5.2,15.78,15.34v3.55c0,4.59-1.65,7.71-5.98,10.49,5.29,2.34,7.28,5.98,7.28,12.22v4.85c0,10.14-5.37,15.34-15.69,15.34h-33.89v-61.81ZM473.64,246.51c3.64,0,4.85-1.04,4.85-4.42v-1.99c0-3.38-1.21-4.51-4.85-4.51h-12.22v10.92h12.22ZM474.94,259.43h-13.52v11.79h13.52c3.64,0,4.85-1.13,4.85-4.59v-2.6c0-3.47-1.21-4.59-4.85-4.59Z"></path>
    <path class="st0" d="M504.45,222.5h15.6v61.81h-15.6v-61.81Z"></path>
    <path class="st0" d="M546.93,235.77h-19.71v-13.26h56.9v13.26h-19.71v48.54h-17.48v-48.54Z"></path>
  </g>
</svg>