<?xml version="1.0" encoding="UTF-8"?>
<svg xmlns="http://www.w3.org/2000/svg" viewBox="0 215 600 75">
  <g fill="currentColor">
    <path d="M61.81,236.98v32.85c0,10.14-5.29,15.34-15.69,15.34h-19.5c-10.4,0-15.69-5.2-15.69-15.34v-32.85c0-10.14,5.29-15.34,15.69-15.34h19.5c10.4,0,15.69,5.2,15.69,15.34ZM41.44,234.9h-10.14c-3.55,0-4.77,1.13-4.77,4.6v27.83c0,3.38,1.21,4.59,4.77,4.59h10.14c3.55,0,4.77-1.21,4.77-4.59v-27.83c0-3.47-1.22-4.6-4.77-4.6Z"></path>
    <path d="M104.22,285.17h-18.55c-10.4,0-15.69-5.2-15.69-15.34v-47.33h15.6v44.82c0,3.38,1.21,4.59,4.77,4.59h9.19c3.55,0,4.77-1.21,4.77-4.59v-44.82h15.6v47.33c0,10.14-5.29,15.34-15.69,15.34Z"></path>
    <path d="M145.67,235.76h-17.6v-13.26h50.8v13.26h-17.6v48.54h-15.6v-48.54Z"></path>
    <path d="M202.22,235.76v10.32h24.62v13.26h-24.62v11.7h28.26v13.26h-43.86v-61.81h43.86v13.26h-28.26Z"></path>
    <path d="M238.79,222.5h33.55c10.49,0,15.78,5.2,15.78,15.34v9.27c0,7.63-2.95,12.4-8.93,14.3l15.6,22.89h-18.2l-15.08-21.93h-7.11v21.93h-15.6v-61.81ZM267.66,249.11c3.64,0,4.85-1.13,4.85-4.51v-4.25c0-3.47-1.21-4.59-4.85-4.59h-13.26v13.35h13.26Z"></path>
    <path d="M374.67,236.98v32.85c0,10.14-5.29,15.34-15.69,15.34h-19.5c-10.4,0-15.69-5.2-15.69-15.34v-32.85c0-10.14,5.29-15.34,15.69-15.34h19.5c10.4,0,15.69,5.2,15.69,15.34ZM354.3,234.9h-10.14c-3.55,0-4.77,1.13-4.77,4.6v27.83c0,3.38,1.21,4.59,4.77,4.59h10.14c3.55,0,4.77-1.21,4.77-4.59v-27.83c0-3.47-1.22-4.6-4.77-4.6Z"></path>
    <path d="M383.88,222.5h33.55c10.49,0,15.78,5.2,15.78,15.34v9.27c0,7.63-2.95,12.4-8.93,14.3l15.6,22.89h-18.2l-15.08-21.93h-7.11v21.93h-15.6v-61.81ZM412.74,249.11c3.64,0,4.85-1.13,4.85-4.51v-4.25c0-3.47-1.21-4.59-4.85-4.59h-13.26v13.35h13.26Z"></path>
    <path d="M445.81,222.5h32.51c10.4,0,15.78,5.2,15.78,15.34v3.55c0,4.59-1.65,7.71-5.98,10.49,5.29,2.34,7.28,5.98,7.28,12.22v4.85c0,10.14-5.37,15.34-15.69,15.34h-33.89v-61.81ZM473.64,246.51c3.64,0,4.85-1.04,4.85-4.42v-1.99c0-3.38-1.21-4.51-4.85-4.51h-12.22v10.92h12.22ZM474.94,259.43h-13.52v11.79h13.52c3.64,0,4.85-1.13,4.85-4.59v-2.6c0-3.47-1.21-4.59-4.85-4.59Z"></path>
    <path d="M504.45,222.5h15.6v61.81h-15.6v-61.81Z"></path>
    <path d="M546.93,235.77h-19.71v-13.26h56.9v13.26h-19.71v48.54h-17.48v-48.54Z"></path>
  </g>
</svg>